<svg xmlns="http://www.w3.org/2000/svg" viewBox="0 0 800 400" preserveAspectRatio="xMidYMid slice">
  <defs>
    <linearGradient id="sky" x1="0" y1="0" x2="0" y2="1">
      <stop offset="0%" stop-color="#0a1a2a" />
      <stop offset="60%" stop-color="#172d46" />
      <stop offset="100%" stop-color="#213d5f" />
    </linearGradient>
    <linearGradient id="glow" x1="0" y1="0" x2="0" y2="1">
      <stop offset="0%" stop-color="#61dafb" stop-opacity="0.65" />
      <stop offset="100%" stop-color="#61dafb" stop-opacity="0" />
    </linearGradient>
    <linearGradient id="mountain" x1="0" y1="0" x2="1" y2="1">
      <stop offset="0%" stop-color="#1d2b3d" />
      <stop offset="100%" stop-color="#0f1a28" />
    </linearGradient>
    <linearGradient id="ridge" x1="0" y1="0" x2="1" y2="0">
      <stop offset="0%" stop-color="#22384e" />
      <stop offset="100%" stop-color="#1a2c40" />
    </linearGradient>
  </defs>
  <rect width="800" height="400" fill="url(#sky)" />
  <ellipse cx="400" cy="120" rx="180" ry="70" fill="url(#glow)" />
  <path d="M0 300 L120 220 L220 260 L320 210 L420 280 L520 230 L620 290 L720 240 L800 300 L800 400 L0 400 Z" fill="url(#mountain)" />
  <path d="M0 340 L100 300 L200 320 L320 290 L430 330 L550 300 L640 330 L730 310 L800 340 L800 400 L0 400 Z" fill="url(#ridge)" />
</svg>
